<svg xmlns="http://www.w3.org/2000/svg" width="20" height="20"><path fill="#5862bf" d="M8.46 15.6c1.167 0 2.116.987 2.116 2.2A2.118 2.203 0 018.461 20a2.117 2.202 0 01-2.116-2.2c0-1.213.95-2.2 2.116-2.2zm6.924 0c1.167 0 2.116.987 2.116 2.2a2.117 2.202 0 01-2.116 2.2 2.117 2.202 0 01-2.115-2.2c0-1.213.948-2.2 2.115-2.2zM8.46 16.8a.962 1 0 000 2 .962 1 0 000-2zm6.923 0a.962 1 0 000 2 .962 1 0 00.962-1 .962 1 0 00-.962-1zM.577 0h2.5c.238 0 .449.153.535.377l.027.088.43 1.935h15.355a.577.6 0 01.576.624l-.013.107-1.731 8.001a.577.6 0 01-.474.461l-.09.007H6.109l.445 2h11.1a.577.6 0 01.094 1.193l-.093.007H6.094a.577.6 0 01-.536-.378l-.027-.088L2.617 1.2H.575A.577.6 0 01.482.007L.575 0h2.501zm18.125 3.6H4.334l1.508 6.8H17.23l1.471-6.8z"/></svg>
