<svg xmlns="http://www.w3.org/2000/svg" width="84" height="25" viewBox="0 0 84 25"><path fill="#fff" d="M24.174.434V24.11h15.232l1.771-3.873H28.482v-6.028h6.346l1.793-3.874h-8.14V4.308h10.22L40.489.434H24.174zm35.095 11.838c0 6.794 5.478 12.272 12.272 12.272 6.762 0 12.272-5.478 12.272-12.272C83.813 5.51 78.303 0 71.54 0c-6.794 0-12.272 5.51-12.272 12.272zm20.316 0c0 4.7-3.635 8.373-8.042 8.373s-8.079-3.673-8.079-8.373c0-4.664 3.672-8.373 8.08-8.373 4.406 0 8.041 3.71 8.041 8.373zM17.89.434l-6.774 14.672L4.341.434H0l11.115 24.072L22.23.434H17.89zM58.072 24.11l1.806-3.907H48.004V.434h-4.308V24.11h14.376z" transform="translate(-20 -21) translate(20 21)"/></svg>
