<svg xmlns="http://www.w3.org/2000/svg" width="18" height="18" viewBox="0 0 18 18"><path fill="#fff" d="M11.427 10.237c-.755 1.062-1.91 1.815-3.246 2.045-.045.008-.09.014-.136.02-.237.035-.477.058-.723.058-2.783 0-5.04-2.256-5.04-5.04 0-2.783 2.257-5.04 5.04-5.04s5.04 2.257 5.04 5.04c0 .171-.009.341-.026.507-.05.5-.174.976-.357 1.42l1.55.643c.33-.792.513-1.66.513-2.57 0-3.705-3.015-6.72-6.72-6.72C3.616.6.602 3.615.602 7.32c0 3.705 3.014 6.72 6.72 6.72 1.55 0 2.975-.532 4.114-1.418l4.778 4.778 1.188-1.188-5.975-5.975z" transform="translate(-212 -13) translate(212 13)"/></svg>
