<svg xmlns="http://www.w3.org/2000/svg" viewBox="0 0 104 31"><path d="M29.976.538v29.359h18.888l2.196-4.804H35.317V17.62h7.87l2.223-4.803H35.317V5.342H47.99L50.207.538H29.976Zm43.517 14.68A15.192 15.192 0 0 0 88.71 30.434c8.385 0 15.218-6.794 15.218-15.218C103.928 6.832 97.095 0 88.71 0c-8.424 0-15.217 6.832-15.217 15.217Zm25.193 0c0 5.828-4.508 10.382-9.973 10.382-5.464 0-10.017-4.554-10.017-10.383 0-5.783 4.553-10.382 10.017-10.382 5.465 0 9.973 4.6 9.973 10.382ZM22.182.537l-8.4 18.193L5.384.538H0l13.783 29.85L27.565.538h-5.383ZM72.01 29.897l2.24-4.845H59.525V.538h-5.342v29.359h17.825Z" fill="#041E42" fill-rule="evenodd"/></svg>
